<?xml version="1.0" encoding="utf-8"?><svg xmlns="http://www.w3.org/2000/svg" xmlns:xlink="http://www.w3.org/1999/xlink"><symbol viewBox="0 0 128 128" id="icon-facebook"><path d="M116.42 5.07H11.58a6.5 6.5 0 00-6.5 6.5v104.85a6.5 6.5 0 006.5 6.5H68V77.29H52.66V59.5H68V46.38c0-15.22 9.3-23.51 22.88-23.51a126 126 0 0113.72.7v15.91h-9.39c-7.39 0-8.82 3.51-8.82 8.66V59.5H104l-2.29 17.79H86.39v45.64h30a6.51 6.51 0 006.5-6.5V11.58a6.5 6.5 0 00-6.47-6.51z"/></symbol><symbol viewBox="0 0 128 128" id="icon-github"><path fill-rule="evenodd" clip-rule="evenodd" d="M64 5.103c-33.347 0-60.388 27.035-60.388 60.388 0 26.682 17.303 49.317 41.297 57.303 3.017.56 4.125-1.31 4.125-2.905 0-1.44-.056-6.197-.082-11.243-16.8 3.653-20.345-7.125-20.345-7.125-2.747-6.98-6.705-8.836-6.705-8.836-5.48-3.748.413-3.67.413-3.67 6.063.425 9.257 6.223 9.257 6.223 5.386 9.23 14.127 6.562 17.573 5.02.542-3.903 2.107-6.568 3.834-8.076-13.413-1.525-27.514-6.704-27.514-29.843 0-6.593 2.36-11.98 6.223-16.21-.628-1.52-2.695-7.662.584-15.98 0 0 5.07-1.623 16.61 6.19C53.7 35 58.867 34.327 64 34.304c5.13.023 10.3.694 15.127 2.033 11.526-7.813 16.59-6.19 16.59-6.19 3.287 8.317 1.22 14.46.593 15.98 3.872 4.23 6.215 9.617 6.215 16.21 0 23.194-14.127 28.3-27.574 29.796 2.167 1.874 4.097 5.55 4.097 11.183 0 8.08-.07 14.583-.07 16.572 0 1.607 1.088 3.49 4.148 2.897 23.98-7.994 41.263-30.622 41.263-57.294C124.388 32.14 97.35 5.104 64 5.104z"/><path d="M26.484 91.806c-.133.3-.605.39-1.035.185-.44-.196-.685-.605-.543-.906.13-.31.603-.395 1.04-.188.44.197.69.61.537.91zm2.446 2.729c-.287.267-.85.143-1.232-.28-.396-.42-.47-.983-.177-1.254.298-.266.844-.14 1.24.28.394.426.472.984.17 1.255zm2.382 3.477c-.37.258-.976.017-1.35-.52-.37-.538-.37-1.183.01-1.44.373-.258.97-.025 1.35.507.368.545.368 1.19-.01 1.452zm3.261 3.361c-.33.365-1.036.267-1.552-.23-.527-.487-.674-1.18-.343-1.544.336-.366 1.045-.264 1.564.23.527.486.686 1.18.333 1.543zm4.5 1.951c-.147.473-.825.688-1.51.486-.683-.207-1.13-.76-.99-1.238.14-.477.823-.7 1.512-.485.683.206 1.13.756.988 1.237zm4.943.361c.017.498-.563.91-1.28.92-.723.017-1.308-.387-1.315-.877 0-.503.568-.91 1.29-.924.717-.013 1.306.387 1.306.88zm4.598-.782c.086.485-.413.984-1.126 1.117-.7.13-1.35-.172-1.44-.653-.086-.498.422-.997 1.122-1.126.714-.123 1.354.17 1.444.663zm0 0"/></symbol><symbol viewBox="0 0 24 24" id="icon-site" xmlns="http://www.w3.org/2000/svg"><path d="M6.188 8.719a6.446 6.446 0 011.444-1.087c2.887-1.591 6.589-.745 8.445 2.069l-2.246 2.245a3.385 3.385 0 00-3.834-1.949 3.33 3.33 0 00-1.633.898L4.06 15.201a3.355 3.355 0 000 4.74 3.355 3.355 0 004.74 0l1.327-1.327a8.533 8.533 0 003.779.575l-2.929 2.929a6.43 6.43 0 11-9.093-9.093l4.304-4.306zm6.836-6.836l-2.929 2.929a8.534 8.534 0 013.779.574L15.2 4.06a3.355 3.355 0 014.74 0 3.355 3.355 0 010 4.74l-4.305 4.305a3.358 3.358 0 01-4.74 0 3.567 3.567 0 01-.727-1.051l-2.246 2.245c.236.358.481.667.796.982a6.404 6.404 0 003.036 1.704 6.441 6.441 0 004.613-.617 6.446 6.446 0 001.444-1.087l4.304-4.305a6.429 6.429 0 10-9.091-9.093z"/></symbol><symbol viewBox="0 0 350 300" id="icon-twitter" xmlns="http://www.w3.org/2000/svg"><path fill-rule="evenodd" d="M350.001 35.509c-3.975 6.658-9.352 13.688-16.131 21.086-5.377 5.918-11.926 11.961-19.639 18.125v4.81c0 1.232.115 2.096.348 2.589v2.589c0 25.401-4.557 50.864-13.676 76.389-9.118 25.523-22.094 48.397-38.928 68.618-18.004 21.702-39.862 38.841-65.581 51.419-25.72 12.577-54.477 18.865-86.272 18.865-20.576 0-39.98-2.958-58.218-8.877-18.703-5.92-36.005-14.304-51.905-25.155.937.247 2.338.371 4.209.371 3.74.493 6.547.739 8.418.739h4.557c16.367 0 32.384-2.835 48.048-8.508 14.496-5.425 28.172-13.316 41.032-23.674-14.963-.246-28.876-5.426-41.732-15.538-12.627-9.863-21.045-22.317-25.252-37.36 3.507.74 5.728 1.108 6.664 1.108h3.504c.704.247 1.755.371 3.158.371 2.103 0 3.741-.124 4.911-.371 2.337 0 5.612-.493 9.819-1.479.466 0 1.17-.124 2.104-.37.937-.247 1.636-.369 2.103-.369-16.601-3.453-30.277-12.208-41.033-26.265-10.989-14.057-16.48-30.086-16.48-48.088V105.424c4.442 2.959 9.586 5.179 15.431 6.658 6.078 1.972 11.805 2.96 17.184 2.96-10.29-7.398-18.004-16.4-23.147-27.004-5.846-10.851-8.768-22.936-8.768-36.252 0-7.398.817-14.057 2.454-19.976.937-4.193 3.274-10.234 7.015-18.125 18.237 23.673 39.979 42.169 65.231 55.487 25.953 14.303 53.54 22.194 82.766 23.675-.701-5.18-1.05-8.015-1.05-8.508-.471-3.453-.704-6.288-.704-8.509 0-20.962 7.015-38.841 21.042-53.637C205.512 7.396 222.462-.002 242.337-.002c10.286 0 19.988 2.096 29.107 6.288 9.118 4.685 16.95 10.605 23.498 17.756 7.481-1.727 15.43-4.192 23.846-7.398 7.015-2.713 14.263-6.412 21.744-11.097-2.803 8.877-6.898 16.892-12.272 24.044-6.081 7.398-12.509 13.316-19.291 17.756a319.095 319.095 0 0021.041-4.44c5.378-1.479 12.042-3.946 19.991-7.398z"/></symbol></svg>